# xmcd
#
# Track frame offsets: 
#        150
#        12944
#        24823
#        42819
#        65311
#        86151
#        97235
#        110797
#        125850
#        137721
#        151840
#        166930
#        179322
#        196483
#        212794
#        227005
#        241114
#        256147
#        271233
#        283676
#
# Disc length: 3948 seconds
#
# Revision: 2
# Processed by: cddbd v1.5.2PL0 Copyright (c) Steve Scherf et al.
# Submitted via: ExactAudioCopy v0.90b4
#
DISCID=160f6a14
DTITLE=Waylon Jennings - Waylon Jennings - The Journey - Six Strings A
DTITLE=way Vol. 5
DYEAR=1999
DGENRE=Country
TTITLE0=Come Early Mornin'
TTITLE1=You Can Have Her
TTITLE2=My God And I
TTITLE3=Frisco Depot (San Fransisco Depot)
TTITLE4=Me And Bobby McGee
TTITLE5=Black Rose
TTITLE6=Pretend I Never Happened
TTITLE7=Delta Dawn
TTITLE8=Never Been To Spain
TTITLE9=Laid Back Country Picker
TTITLE10=Good Time Charlie's Got The Blues
TTITLE11=Willy, The Wandering Gypsy
TTITLE12=San Fransisco Mabel Joy
TTITLE13=Lonesome, On'ry And Mean
TTITLE14=Freedom To Stay
TTITLE15=Lisa's Only Seven
TTITLE16=The Last One To Leave Seattle
TTITLE17=About That Woman
TTITLE18=Poor Old Ugly Gladys Jones
TTITLE19=Chet's Tune
EXTD=
EXTT0=
EXTT1=
EXTT2=
EXTT3=
EXTT4=
EXTT5=
EXTT6=
EXTT7=
EXTT8=
EXTT9=
EXTT10=
EXTT11=
EXTT12=
EXTT13=
EXTT14=
EXTT15=
EXTT16=
EXTT17=
EXTT18=
EXTT19=
PLAYORDER=
